<svg xmlns="http://www.w3.org/2000/svg" viewBox="0 0 100 100">
    <path
        d="M19.434,93.975c-5.265,0-9.548-4.283-9.548-9.548V27.523c0-5.265,4.283-9.548,9.548-9.548h47.639l5.46-5.461 c1.562-1.561,3.753-2.456,6.012-2.456c2.261,0,4.452,0.896,6.012,2.458l7.068,7.068c1.604,1.604,2.489,3.739,2.489,6.011 c0,2.271-0.885,4.406-2.489,6.011l-5.738,5.738v47.082c0,5.265-4.283,9.548-9.549,9.548H19.434z"
        opacity=".35" />
    <path fill="#f2f2f2"
        d="M17.434,91.975c-5.265,0-9.548-4.283-9.548-9.548V25.523c0-5.265,4.283-9.548,9.548-9.548h47.639 l5.46-5.461c1.562-1.561,3.753-2.456,6.012-2.456c2.261,0,4.452,0.896,6.012,2.458l7.068,7.068 c1.604,1.604,2.489,3.739,2.489,6.011c0,2.271-0.885,4.406-2.489,6.011l-5.738,5.738v47.082c0,5.265-4.283,9.548-9.549,9.548 H17.434z" />
    <path fill="#d9eeff"
        d="M74.337,85.475H17.434c-1.684,0-3.048-1.365-3.048-3.048V25.524c0-1.684,1.365-3.048,3.048-3.048 h56.903c1.684,0,3.048,1.365,3.048,3.048v56.903C77.386,84.11,76.021,85.475,74.337,85.475z" />
    <rect width="11.195" height="9" x="71.653" y="18.389" fill="#f4665c" transform="rotate(45.001 77.251 22.888)" />
    <rect width="10.969" height="39.647" x="52.903" y="21.928" fill="#f9b84f"
        transform="rotate(45.001 58.388 41.751)" />
    <rect width="11.014" height="4" x="68.312" y="24.32" fill="#9aa2e6" transform="rotate(45.001 73.82 26.32)" />
    <polygon fill="#fedeb3" points="38.006,62.133 40.492,51.891 48.248,59.647" />
    <path fill="#40396e"
        d="M74.337,86.975H17.434c-2.508,0-4.548-2.041-4.548-4.548V25.523c0-2.508,2.04-4.548,4.548-4.548 h49.71l6.925-6.925c1.323-1.322,3.63-1.321,4.949,0l7.071,7.071c1.365,1.365,1.365,3.585,0,4.95l-7.203,7.203v49.153 C78.886,84.935,76.845,86.975,74.337,86.975z M17.434,23.975c-0.854,0-1.548,0.695-1.548,1.548v56.903 c0,0.854,0.694,1.548,1.548,1.548h56.903c0.854,0,1.549-0.694,1.549-1.548V32.653c0-0.398,0.158-0.779,0.439-1.061l7.643-7.643 c0.195-0.195,0.195-0.512,0-0.708l-7.071-7.071c-0.127-0.127-0.275-0.146-0.354-0.146c-0.077,0-0.227,0.019-0.354,0.146 l-7.364,7.364c-0.281,0.281-0.663,0.439-1.061,0.439H17.434z" />
    <polygon fill="#40396e" points="39.44,56.227 38.006,62.133 43.912,60.7" />
</svg>