<svg xmlns="http://www.w3.org/2000/svg" baseProfile="basic" viewBox="0 0 100 100">
    <path
        d="M26,100c-4.411,0-8-3.589-8-8V10c0-4.411,3.589-8,8-8h4c4,8,8,8.979,8,8.979l53.479,25.817	C94.225,38.122,96,40.949,96,44s-1.775,5.878-4.522,7.204L38,77.021V92c0,4.411-3.589,8-8,8H26z"
        opacity=".35" />
    <path fill="#f2f2f2"
        d="M24,98c-4.411,0-8-3.589-8-8V8c0-4.411,3.589-8,8-8h4c4.411,0,8,3.589,8,8v0.979l53.479,25.817	C92.225,36.122,94,38.949,94,42s-1.775,5.878-4.522,7.204L36,75.021V90c0,4.411-3.589,8-8,8H24z" />
    <path fill="#40396e"
        d="M21,90V8c0-1.657,1.343-3,3-3h4c1.657,0,3,1.343,3,3v4.117l56.305,27.182	C88.341,39.799,89,40.849,89,42s-0.659,2.201-1.695,2.701L31,71.883V90c0,1.657-1.343,3-3,3h-4C22.343,93,21,91.657,21,90z" />
    <polygon fill="#9ba7c5" points="28,8 28,14 26,15 24,14 24,8" />
    <polygon fill="#9ba7c5" points="24,70 26,69 28,70 28,90 24,90" />
    <polygon fill="#de5147" points="24,14 28,14 29,42 28,70.004 24,70.004" />
    <polygon fill="#f4665c" points="28,14 28,70 86,42" />
</svg>