<svg xmlns="http://www.w3.org/2000/svg" viewBox="0 0 100 100">
    <circle cx="52" cy="52" r="44" opacity=".35" />
    <circle cx="50" cy="50" r="44" fill="#f2f2f2" />
    <circle cx="50" cy="50" r="37.5" fill="#ffc571" />
    <path fill="#40396e"
        d="M50,89c-21.505,0-39-17.495-39-39s17.495-39,39-39s39,17.495,39,39S71.505,89,50,89z M50,14	c-19.851,0-36,16.149-36,36s16.149,36,36,36s36-16.149,36-36S69.851,14,50,14z" />
    <path fill="#d47f56"
        d="M33.107,54.645c-0.73-0.256-1.462,0.396-1.306,1.154C33.918,66.105,42.034,71.032,50,71.032	s16.082-4.927,18.2-15.232c0.156-0.758-0.576-1.41-1.306-1.154c-2.539,0.89-8.113,2.386-16.893,2.386S35.646,55.536,33.107,54.645z" />
    <path fill="#d47f56"
        d="M42.738,43c-0.559,0-1.095-0.313-1.353-0.85c-1.218-2.53-3.373-4.041-5.768-4.041	c-2.394,0-4.549,1.511-5.767,4.041c-0.358,0.746-1.254,1.06-2.002,0.701c-0.746-0.359-1.061-1.255-0.701-2.002	c1.703-3.541,4.948-5.74,8.47-5.74s6.768,2.199,8.471,5.74c0.359,0.747,0.045,1.643-0.701,2.002C43.178,42.952,42.956,43,42.738,43z" />
    <path fill="#d47f56"
        d="M72.501,43c-0.559,0-1.095-0.313-1.353-0.85c-1.218-2.53-3.373-4.041-5.767-4.041	c-2.395,0-4.55,1.511-5.768,4.041c-0.358,0.746-1.253,1.06-2.002,0.701c-0.746-0.359-1.061-1.255-0.701-2.002	c1.703-3.541,4.949-5.74,8.471-5.74s6.767,2.199,8.47,5.74c0.359,0.747,0.045,1.643-0.701,2.002C72.94,42.952,72.719,43,72.501,43z" />
</svg>