<svg xmlns="http://www.w3.org/2000/svg" viewBox="0 0 100 100">
    <path
        d="M51.948,95.998c-1.366,0-2.694-0.264-3.946-0.784c-0.418-0.173-0.835-0.379-1.232-0.611	l-31.407-18.18c-0.49-0.283-0.959-0.623-1.391-1.008c-0.062-0.055-0.14-0.126-0.221-0.205c-0.315-0.299-0.623-0.644-0.896-1.007	c-2.041-2.688-2.267-6.335-0.564-9.274c0.375-0.645,0.827-1.23,1.347-1.747c0.506-0.51,1.105-0.969,1.757-1.341l2.195-1.271L17,57	c-1.942-1.125-4.979-0.664-5.558-2.833c-0.579-2.171-0.277-4.437,0.849-6.379c0.741-1.275,1.803-2.335,3.073-3.067l2.229-1.29L16,40	c-1.943-1.126-3.979-0.808-4.558-2.976c-0.579-2.17-0.277-4.435,0.849-6.378c0.731-1.266,1.79-2.325,3.059-3.06L46.798,9.388	c1.562-0.906,3.35-1.386,5.165-1.386s3.602,0.479,5.168,1.388l31.415,18.197c4.007,2.321,5.381,7.472,3.062,11.482	c-0.74,1.274-1.8,2.332-3.068,3.065l-2.236,1.294l2.242,1.3c4.008,2.32,5.382,7.472,3.062,11.482	c-0.735,1.269-1.791,2.324-3.055,3.059l-2.238,1.296l2.151,1.243c1.869,1.026,3.267,2.692,3.942,4.702	c0.729,2.165,0.546,4.478-0.514,6.51c-0.786,1.507-2.029,2.737-3.521,3.491L57.112,94.61c-0.39,0.227-0.811,0.436-1.24,0.611	C54.642,95.734,53.314,95.998,51.948,95.998z"
        opacity=".35" />
    <path fill="#f2f2f2"
        d="M49.948,93.998c-1.366,0-2.694-0.264-3.946-0.784c-0.418-0.173-0.835-0.379-1.232-0.611	l-31.407-18.18c-0.49-0.283-0.959-0.623-1.391-1.008c-0.062-0.055-0.14-0.126-0.221-0.205c-0.315-0.299-0.623-0.644-0.896-1.007	c-2.041-2.688-2.267-6.335-0.564-9.274c0.375-0.645,0.827-1.23,1.347-1.747c0.506-0.51,1.105-0.969,1.757-1.341l2.195-1.271	l-2.238-1.296c-1.942-1.125-3.331-2.938-3.909-5.107c-0.579-2.171-0.277-4.437,0.849-6.379c0.741-1.275,1.803-2.335,3.073-3.067	l2.229-1.29l-2.242-1.298c-1.943-1.126-3.332-2.94-3.91-5.108c-0.579-2.17-0.277-4.435,0.849-6.378	c0.731-1.266,1.79-2.325,3.059-3.06L44.798,7.388c1.562-0.906,3.35-1.386,5.165-1.386s3.602,0.479,5.168,1.388l31.415,18.197	c4.007,2.321,5.381,7.472,3.062,11.482c-0.74,1.274-1.8,2.332-3.068,3.065l-2.236,1.294l2.242,1.3	c4.008,2.32,5.382,7.472,3.062,11.482c-0.735,1.269-1.791,2.324-3.055,3.059l-2.238,1.296l2.151,1.243	c1.869,1.026,3.267,2.692,3.942,4.702c0.729,2.165,0.546,4.478-0.514,6.51c-0.786,1.507-2.029,2.737-3.521,3.491L55.112,92.61	c-0.39,0.227-0.811,0.436-1.24,0.611C52.642,93.734,51.314,93.998,49.948,93.998z" />
    <path fill="#d9eeff"
        d="M83.295,68.779L51.852,86.986c-1.177,0.686-2.632,0.686-3.809,0L16.618,68.798	c-0.915-0.528-1.229-1.698-0.701-2.613c0.168-0.291,0.41-0.533,0.701-0.701l10.037-5.809l1.111-2.845l20.296-9.534	c1.177-0.686,2.632-0.686,3.809,0l17.532,10.146l2.672-0.782l0.212,2.463l0.952,0.552l10.056,5.809	c0.936,0.488,1.323,1.595,0.835,2.531C83.949,68.362,83.666,68.645,83.295,68.779z" />
    <path fill="#70bfff"
        d="M80.493,51.511L51.696,68.183c-1.082,0.626-2.415,0.626-3.497,0L19.403,51.511	c-0.834-0.483-3.673-1.167-3.19-2.001c0.153-0.264,2.926-0.867,3.19-1.019l9.57-5.539l0.07-3.612l19.17-7.523	c1.082-0.626,2.416-0.626,3.497,0.001L71.213,40l0.721,3.533l8.559,4.958c0.834,0.483,3.969,1.303,3.486,2.137	C83.826,50.891,80.756,51.358,80.493,51.511z" />
    <path fill="#707cc0"
        d="M80.512,34.37L51.697,51.053c-1.082,0.627-2.417,0.627-3.499,0L19.384,34.371	c-0.835-0.483-3.867-1.259-3.384-2.094c0.153-0.264,3.12-0.775,3.384-0.928l30.577-17.697l30.551,17.697	c0.834,0.483,4.205,0.603,3.722,1.438C84.081,33.05,80.775,34.217,80.512,34.37z" />
    <path fill="none" stroke="#40396e" stroke-linecap="round" stroke-linejoin="round" stroke-miterlimit="10"
        stroke-width="3"
        d="M83.295,65.484l-7.85-4.535l-3.384-1.96l-0.707-0.418l-0.011-0.006l11.944-6.915c0.288-0.167,0.527-0.406,0.694-0.694	c0.527-0.91,0.217-2.075-0.694-2.603l-11.954-6.925l11.954-6.921c0.288-0.167,0.527-0.406,0.694-0.694	c0.527-0.91,0.217-2.075-0.693-2.603L51.871,13.013c-1.18-0.684-2.636-0.684-3.817-0.001L16.609,31.211	c-0.288,0.167-0.527,0.406-0.694,0.694c-0.527,0.91-0.216,2.075,0.694,2.602l11.959,6.924l-11.959,6.921	c-0.288,0.167-0.527,0.406-0.694,0.694c-0.527,0.91-0.216,2.075,0.694,2.602l11.952,6.92l-0.002,0.001l-1.905,1.105l-10.037,5.809	c-0.147,0.085-0.281,0.189-0.4,0.308c-0.117,0.117-0.22,0.249-0.304,0.394c-0.396,0.685-0.318,1.513,0.132,2.107	c0.071,0.095,0.153,0.182,0.243,0.263c0.002,0.002,0.004,0.005,0.006,0.007c0.097,0.087,0.204,0.167,0.322,0.235l19.814,11.468	l11.606,6.719c0.148,0.086,0.301,0.161,0.457,0.225c0.929,0.386,1.975,0.386,2.903,0c0.156-0.064,0.309-0.139,0.457-0.225	l31.431-18.197c0.01-0.006,0.018-0.015,0.028-0.021c0.36-0.137,0.638-0.412,0.816-0.752C84.618,67.079,84.231,65.972,83.295,65.484z" />
</svg>