<svg xmlns="http://www.w3.org/2000/svg" viewBox="0 0 100 100">
    <path
        d="M82,36c-6.882,0-12.746,4.376-15,10.485C64.746,40.376,58.882,36,52,36s-12.746,4.376-15,10.485	C34.746,40.376,28.882,36,22,36c-8.822,0-16,7.178-16,16s7.178,16,16,16c6.882,0,12.746-4.376,15-10.485	C39.254,63.624,45.118,68,52,68s12.746-4.376,15-10.485C69.254,63.624,75.118,68,82,68c8.822,0,16-7.178,16-16S90.822,36,82,36z"
        opacity=".35" />
    <path fill="#f2f2f2"
        d="M80,34c-6.882,0-12.746,4.376-15,10.485C62.746,38.376,56.882,34,50,34s-12.746,4.376-15,10.485	C32.746,38.376,26.882,34,20,34c-8.822,0-16,7.178-16,16s7.178,16,16,16c6.882,0,12.746-4.376,15-10.485	C37.254,61.624,43.118,66,50,66s12.746-4.376,15-10.485C67.254,61.624,73.118,66,80,66c8.822,0,16-7.178,16-16S88.822,34,80,34z" />
    <circle cx="50" cy="50" r="9.5" fill="#70bfff" />
    <path fill="#40396e"
        d="M50,61c-6.065,0-11-4.935-11-11s4.935-11,11-11s11,4.935,11,11S56.065,61,50,61z M50,42	c-4.411,0-8,3.589-8,8s3.589,8,8,8s8-3.589,8-8S54.411,42,50,42z" />
    <circle cx="20" cy="50" r="9.5" fill="#70bfff" />
    <path fill="#40396e"
        d="M20,61c-6.065,0-11-4.935-11-11s4.935-11,11-11s11,4.935,11,11S26.065,61,20,61z M20,42	c-4.411,0-8,3.589-8,8s3.589,8,8,8s8-3.589,8-8S24.411,42,20,42z" />
    <circle cx="80" cy="50" r="9.5" fill="#70bfff" />
    <path fill="#40396e"
        d="M80,61c-6.065,0-11-4.935-11-11s4.935-11,11-11s11,4.935,11,11S86.065,61,80,61z M80,42	c-4.411,0-8,3.589-8,8s3.589,8,8,8s8-3.589,8-8S84.411,42,80,42z" />
</svg>