<svg xmlns="http://www.w3.org/2000/svg" viewBox="0 0 100 100">
    <path
        d="M20.235,95c-1.759,0-3.466-0.727-4.686-1.995c-1.222-1.27-1.881-3.008-1.81-4.77c0.063-1.543,0.781-15.304,6.589-23.047 c1.791-2.388,4.61-4.568,8.555-6.602c-0.145-0.212-0.291-0.424-0.437-0.635c-1.283-1.86-2.729-3.955-3.694-6.15 c-2.487-5.649-2.053-13.274-1.75-16.29c0.26-2.613,1.502-5.326,3.907-8.534c1.308-1.742,3.261-2.89,5.513-3.28 c5.263-10.913,16.872-14.41,22.793-14.69l0.232-0.005L57.375,9l0.099,0.004c0.176,0.007,16.572,0.817,23.085,15.057 c0.506,0.188,0.995,0.422,1.459,0.701c2.166,1.304,3.644,3.561,4.054,6.191c2.352,15.098,2.352,16.144,2.352,16.647l0.002,0.463 c0.013,2.686,0.027,6.03-2.898,11.433c-0.698,1.289-1.381,2.417-2.04,3.507c-0.183,0.301-0.362,0.598-0.536,0.889 c6.18,6.649,7.313,13.394,7.314,24.6c0,3.589-2.916,6.509-6.5,6.509H20.235z"
        opacity=".35" />
    <path fill="#f2f2f2"
        d="M18.235,93c-1.759,0-3.466-0.727-4.686-1.995c-1.222-1.27-1.881-3.008-1.81-4.77 c0.063-1.543,0.781-15.304,6.589-23.047c1.791-2.388,4.61-4.568,8.555-6.602c-0.145-0.212-0.291-0.424-0.437-0.635 c-1.283-1.86-2.729-3.955-3.694-6.15c-2.487-5.649-2.053-13.274-1.75-16.29c0.26-2.613,1.502-5.326,3.907-8.534 c1.308-1.742,3.261-2.89,5.513-3.28c5.263-10.913,16.872-14.41,22.793-14.69l0.232-0.005L55.375,7l0.099,0.004 c0.176,0.007,16.572,0.817,23.085,15.057c0.506,0.188,0.995,0.422,1.459,0.701c2.166,1.304,3.644,3.561,4.054,6.191 c2.352,15.098,2.352,16.144,2.352,16.647l0.002,0.463c0.013,2.686,0.027,6.03-2.898,11.433c-0.698,1.289-1.381,2.417-2.04,3.507 c-0.183,0.301-0.362,0.598-0.536,0.889c6.18,6.649,7.313,13.394,7.314,24.6c0,3.589-2.916,6.509-6.5,6.509H18.235z" />
    <path fill="#d47f56"
        d="M46.471,56.5c0,0-18.176,4.235-22.941,10.588S18.235,86.5,18.235,86.5h63.529 c0-17.294-3-19.059-17.647-30H46.471z" />
    <path fill="#f9b84f"
        d="M64.785,57.84c-0.352,2.112-0.704,3.52-0.704,3.52s-3.168,15.841-8.801,15.841 c-3.52,0-7.569-16.37-7.569-16.37l0,0c1.056,3.344,2.816,5.809,7.569,5.809c0.176,0,0.88,0,1.056,0 C61.793,66.64,63.553,62.416,64.785,57.84z" />
    <path fill="#f9b84f"
        d="M72.513,28.878c0.704-1.232,2.816-1.232,3.696,0.528c0.352,0.528,2.288,13.729,2.288,16.193 s0.176,4.576-2.112,8.801c-2.288,4.224-4.928,7.393-4.928,10.561c0,3.168,5.28,14.081,5.28,14.081s-1.936,3.168-7.041,5.28 c0,0-6.513-18.482-5.28-24.642c0,0,0.528-4.752,3.52-10.561S72.513,28.878,72.513,28.878z" />
    <path fill="#f9b84f"
        d="M35.941,30.11c0.352-2.288-3.344-2.64-4.4-1.232c-1.056,1.408-2.464,3.52-2.64,5.28 c-0.176,1.76-0.704,8.625,1.232,13.025s7.217,9.329,7.217,13.905S34.18,82.563,34.18,82.563c2.464,0,5.633,0.176,8.449-2.288 c0-3.168,1.232-12.497,1.232-13.905c0.176-3.344,3.785-5.501,2.905-9.901L35.941,30.11z" />
    <path fill="#ffe385"
        d="M55.239,14.898h-1.626c0,0-17.889,0.813-17.889,19.515c0,11.709,6.668,13.498,9.758,19.515 s1.464,14.636,9.758,14.636c0.163,0,0.813,0,0.976,0c8.294,0,7.318-10.246,10.408-16.263s6.505-6.18,6.505-17.889 C73.128,15.711,55.239,14.898,55.239,14.898z" />
    <path fill="#d47f56"
        d="M56.337,50c-0.704-1.056-2.288-1.232-3.344-0.528c-0.88,0.528-1.056,1.584-1.232,2.64 c-0.352,3.52,0.704,7.217,2.816,10.209c0.176,0.352,0.528,0.704,0.88,0.88c0.88,0.352,1.76-0.528,2.112-1.232 c0.88-1.584,1.232-3.52,1.056-5.457C58.097,52.112,56.337,50,56.337,50z" />
    <path fill="#d47f56"
        d="M53.52,43.839c0,1.056-0.704,1.76-1.76,1.76S50,44.896,50,43.839s0.704-1.76,1.76-1.76 S53.52,42.783,53.52,43.839z M57.041,42.079c-1.056,0-1.76,0.704-1.76,1.76s0.704,1.76,1.76,1.76s1.76-0.704,1.76-1.76 S58.097,42.079,57.041,42.079z" />
    <path fill="#d47f56"
        d="M46.48,36.799c0,1.056-0.704,1.76-1.76,1.76s-1.76-0.704-1.76-1.76c0-1.056,0.704-1.76,1.76-1.76 S46.48,35.743,46.48,36.799z M60.561,33.278c-1.056,0-1.76,0.704-1.76,1.76c0,1.056,0.704,1.76,1.76,1.76 c1.056,0,1.76-0.704,1.76-1.76C62.321,33.983,61.617,33.278,60.561,33.278z" />
    <path fill="#40396e"
        d="M81.765,88H18.235c-0.408,0-0.799-0.167-1.082-0.461s-0.434-0.692-0.417-1.1 c0.022-0.552,0.605-13.602,5.593-20.251c1.907-2.543,5.815-4.999,11.625-7.308c-0.688-1.851-2.059-3.837-3.393-5.77 c-1.207-1.75-2.456-3.559-3.232-5.323c-2.063-4.688-1.557-11.731-1.352-13.778c0.164-1.647,1.124-3.621,2.933-6.032 c1.083-1.443,3.311-1.714,4.87-1.163c4.241-13.928,19.507-14.806,19.672-14.813L55.279,12c0.226,0.009,15.319,0.869,19.665,14.567 c0.26-0.044,0.528-0.061,0.799-0.045c1.371,0.078,2.579,0.905,3.233,2.213l-0.01,0.005c0.813,1.982,2.456,15.589,2.456,16.859 l0.002,0.483c0.011,2.336,0.022,4.752-2.295,9.032c-0.641,1.182-1.292,2.259-1.922,3.3c-1.006,1.662-1.898,3.138-2.398,4.489 c6.771,5.944,8.455,10.823,8.455,23.597C83.265,87.329,82.593,88,81.765,88z M19.843,85h60.414 c-0.121-11.224-1.717-15.031-8.138-20.454c-0.436-0.368-0.625-0.95-0.489-1.503c0.497-2.025,1.662-3.951,3.012-6.181 c0.611-1.011,1.244-2.057,1.85-3.176c1.952-3.604,1.943-5.451,1.934-7.588L78.423,45.6c0-2.311-1.768-14.194-2.154-15.569 c-0.239-0.44-0.563-0.506-0.695-0.514c-0.139-0.009-0.273,0.036-0.32,0.107c-0.328,0.505-0.927,0.766-1.522,0.658 c-0.594-0.107-1.065-0.559-1.198-1.147c-2.979-13.27-16.74-14.107-17.325-14.136L53.521,15c-0.549,0.029-15.15,0.924-17.501,15.425 c-0.108,0.667-0.648,1.18-1.321,1.252c-0.665,0.068-1.309-0.314-1.556-0.944c-0.097-0.247-0.155-0.589-0.115-0.85 c-0.028-0.146-0.286-0.313-0.756-0.336c-0.539-0.027-0.899,0.152-0.962,0.232c-1.808,2.408-2.274,3.792-2.349,4.529 c-0.132,1.326-0.701,8.15,1.113,12.272c0.661,1.503,1.775,3.118,2.955,4.827c1.801,2.608,3.662,5.305,4.214,8.087 c0.143,0.72-0.257,1.438-0.943,1.696c-5.897,2.217-9.898,4.568-11.571,6.798C21.237,72.644,20.149,81.434,19.843,85z M76.385,30.236c0.001,0,0.001,0.001,0.002,0.002C76.386,30.237,76.386,30.236,76.385,30.236z" />
</svg>