<svg xmlns="http://www.w3.org/2000/svg" viewBox="0 0 100 100">
    <path fill="#1d1d1b"
        d="M82.5,42.242V41c0-6.251-3.068-11.215-8.418-13.62	c-2.014-0.906-4.283-1.385-6.561-1.385c-0.765,0-1.522,0.054-2.262,0.161c-2.471-2.312-5.781-3.743-9.4-3.976	c-0.334-0.023-0.686-0.034-1.031-0.034c-3.115,0-6.024,0.947-8.388,2.675c-1.309-0.337-2.702-0.513-4.117-0.513	c-0.783,0-1.57,0.054-2.34,0.162c-3.599,0.502-6.748,2.164-9.021,4.693c-2.787,0.073-5.641,0.878-8.08,2.285	C18.191,34.148,15.5,38.725,15.5,44v21c0,6.893,5.607,12.5,12.5,12.5c1.929,0,3.571-0.304,4.951-0.767	c2.261,1.758,5.096,2.761,8.077,2.761c0.902,0,1.794-0.093,2.661-0.274c0.322,2.753,1.338,4.789,2.364,6.199	C48.779,89.165,52.979,90.5,56,90.5c1.641,0,3.549-0.381,5.964-0.864c3.002-0.601,6.7-1.341,9.933-1.341	c0.802,0,1.535,0.047,2.18,0.14c0.819,0.116,1.62,0.175,2.388,0.175c3.163,0,5.992-1.003,8.18-2.901	c4.282-3.713,4.836-9.432,4.855-13.479C90.234,60.913,85.677,48.608,82.5,42.242z"
        opacity=".35" />
    <path fill="#f2f2f2"
        d="M80.5,40.242V39c0-6.251-3.068-11.215-8.418-13.62c-2.014-0.906-4.283-1.385-6.561-1.385	c-0.765,0-1.522,0.054-2.262,0.161c-2.471-2.312-5.781-3.743-9.4-3.976c-0.334-0.023-0.686-0.034-1.031-0.034	c-3.115,0-6.024,0.947-8.388,2.675c-1.309-0.337-2.702-0.513-4.117-0.513c-0.783,0-1.57,0.054-2.34,0.162	c-3.599,0.502-6.748,2.164-9.021,4.693c-2.787,0.073-5.641,0.878-8.08,2.285C16.191,32.148,13.5,36.724,13.5,42v21	c0,6.893,5.607,12.5,12.5,12.5c1.929,0,3.571-0.304,4.951-0.767c2.261,1.758,5.096,2.761,8.077,2.761	c0.902,0,1.794-0.093,2.661-0.274c0.322,2.753,1.338,4.789,2.364,6.199C46.779,87.165,50.979,88.5,54,88.5	c1.641,0,3.549-0.381,5.964-0.864c3.002-0.601,6.7-1.341,9.933-1.341c0.802,0,1.535,0.047,2.18,0.14	c0.819,0.116,1.62,0.175,2.388,0.175c3.163,0,5.992-1.003,8.18-2.901c4.282-3.713,4.836-9.432,4.855-13.479	C88.234,58.913,83.677,46.608,80.5,40.242z" />
    <path fill="#ffc7a3"
        d="M74,41.81V39c0-9.092-9.918-9.916-13.222-6.985c-1.835-6.171-11.88-7.665-14.815-1.058	c-2.002-2.867-11.31-3.826-13.773,3.315C28.984,32.415,20,34.633,20,42v21c0,3.314,2.686,6,6,6c2.611,0,4.827-1.671,5.651-4h0.353	c0.434,3.383,3.318,6,6.82,6s6.385-2.617,6.82-6c0.802,0-0.419,3.52,3.248,5.833C46.079,79.525,51.276,82,54,82c3,0,12-3,19-2	s8-5,8-10C81.792,58.911,76.314,46.203,74,41.81z" />
    <g opacity=".35">
        <path fill="#40396e"
            d="M72.5,40.833V64c0,3.56-2.769,4.996-5.14,5.145c-2.504,0.164-5.767-1.157-6.181-4.344L61,41.987 c-0.007-0.824-0.677-1.487-1.5-1.487c-0.004,0-0.009,0-0.013,0c-0.829,0.007-1.495,0.684-1.488,1.513l0.185,23.535 c-0.215,3.343-2.901,4.877-5.411,4.877c-1.231,0-2.464-0.358-3.436-1.102l-1.345,2.69c1.415,0.926,3.097,1.412,4.781,1.412 c2.989,0,6.004-1.452,7.487-4.242c1.768,2.142,4.611,3.134,7.286,2.956c3.831-0.24,7.953-2.89,7.953-8.139V39.833L72.5,40.833z" />
        <path fill="#40396e"
            d="M32.5,45c-0.829,0-1.5,0.672-1.5,1.5v20c0,0.828,0.671,1.5,1.5,1.5s1.5-0.672,1.5-1.5v-20 C34,45.672,33.329,45,32.5,45z" />
        <path fill="#40396e"
            d="M45.5,42.5c-0.829,0-1.5,0.672-1.5,1.5v22.5c0,0.828,0.671,1.5,1.5,1.5s1.5-0.672,1.5-1.5V44 C47,43.172,46.329,42.5,45.5,42.5z" />
    </g>
    <path fill="#40396e"
        d="M54,83.5c-1.791,0-4.282-0.794-5.904-3.023c-1.148-1.578-2.191-4.404-0.941-9.062	c-0.644-0.53-1.284-1.188-1.817-1.991c-1.584,2.097-4.017,3.07-6.31,3.07c-2.573,0-5.457-1.277-7.011-4.02	C30.767,69.596,28.836,70.5,26,70.5c-4.136,0-7.5-3.364-7.5-7.5V42c0-3.489,1.733-6.41,4.88-8.224c2.511-1.448,5.655-1.956,8-1.403	c1.432-2.72,4.019-4.496,7.293-4.953c2.553-0.355,5.142,0.141,6.914,1.225c1.781-2.386,4.674-3.696,7.951-3.476	c3.412,0.22,6.386,2.021,7.915,4.654c2.451-1.119,5.812-1.128,8.58,0.117C72.074,30.858,75.5,33.257,75.5,39v2.441	c2.503,4.821,7.777,17.46,7,28.612c-0.004,3.094-0.341,7.457-3.132,9.878c-1.638,1.421-3.853,1.941-6.58,1.554	c-4.414-0.634-9.833,0.453-13.79,1.245C56.847,83.16,55.148,83.5,54,83.5z M45.501,63.487c0.021,0,0.042,0,0.064,0.001	c0.778,0.033,1.402,0.655,1.436,1.434c0,0.01,0.003,0.11,0.004,0.12c0.045,1.852,0.958,3.379,2.714,4.54	c0.562,0.371,0.807,1.071,0.6,1.713c-1.045,3.232-0.975,5.797,0.204,7.417C51.482,80.031,52.996,80.5,54,80.5	c0.852,0,2.5-0.33,4.41-0.712c4.17-0.833,9.883-1.975,14.802-1.273c1.857,0.264,3.225-0.013,4.19-0.85	C78.814,76.441,79.5,73.934,79.5,70c0-0.036,0.001-0.071,0.004-0.106c0.761-10.662-4.523-23.004-6.831-27.385	c-0.114-0.216-0.173-0.456-0.173-0.699V39c0-3.853-2.011-5.565-3.698-6.323c-2.584-1.164-5.72-0.701-7.029,0.46	c-0.383,0.341-0.915,0.463-1.407,0.32c-0.493-0.141-0.88-0.523-1.026-1.015c-0.815-2.742-3.599-4.125-5.996-4.28	c-2.743-0.18-4.985,1.095-6.011,3.404c-0.22,0.494-0.688,0.832-1.228,0.884c-0.535,0.057-1.062-0.19-1.373-0.635	c-0.575-0.824-2.917-1.806-5.646-1.424c-1.559,0.217-4.343,1.073-5.479,4.369c-0.146,0.424-0.474,0.76-0.894,0.916	c-0.419,0.156-0.887,0.116-1.276-0.107c-1.243-0.72-4.176-0.567-6.56,0.806C23.337,37.264,21.5,38.96,21.5,42v21	c0,2.481,2.019,4.5,4.5,4.5c4.338,0,4.976-2.718,4.981-2.745c0.138-0.726,0.776-1.261,1.519-1.22	c0.737,0.021,1.349,0.576,1.443,1.308c0.412,3.213,2.851,4.65,5.085,4.65c2.022,0,4.542-1.23,4.986-4.696	C44.11,64.045,44.75,63.487,45.501,63.487z" />
</svg>