<svg xmlns="http://www.w3.org/2000/svg" viewBox="0 0 100 100">
    <path
        d="M88.915,88.033c-3.418,0-6.268-2.672-6.486-6.084c-0.058-0.706-1.781-17.383-31.312-19.531v8.04 c0,2.494-1.455,4.798-3.708,5.87c-0.864,0.412-1.831,0.631-2.792,0.631c-1.487,0-2.942-0.517-4.098-1.454L10.984,51.508 c-1.525-1.239-2.4-3.078-2.4-5.045s0.875-3.806,2.402-5.045l29.531-23.995c1.156-0.939,2.611-1.456,4.1-1.456 c0.961,0,1.928,0.219,2.796,0.632c2.249,1.07,3.704,3.374,3.704,5.868v8.575c43.187,4.207,44.292,49.929,44.299,50.407 c0.042,3.555-2.703,6.442-6.25,6.579L88.915,88.033z"
        opacity=".35" />
    <path fill="#f2f2f2"
        d="M86.915,86.033c-3.418,0-6.268-2.672-6.486-6.084c-0.058-0.706-1.781-17.383-31.312-19.531v8.04 c0,2.494-1.455,4.798-3.708,5.87c-0.864,0.412-1.831,0.631-2.792,0.631c-1.487,0-2.942-0.517-4.098-1.454L8.984,49.508 c-1.525-1.239-2.4-3.078-2.4-5.045s0.875-3.806,2.402-5.045l29.531-23.995c1.156-0.939,2.611-1.456,4.1-1.456 c0.961,0,1.928,0.219,2.796,0.632c2.249,1.07,3.704,3.374,3.704,5.868v8.575c43.187,4.207,44.292,49.929,44.299,50.407 c0.042,3.555-2.703,6.442-6.25,6.579L86.915,86.033z" />
    <path fill="#70bfff"
        d="M42.617,20.468v14.766c43.745,0,44.299,44.299,44.299,44.299s-1.661-25.841-44.299-25.841v14.766 L13.084,44.463L42.617,20.468z" />
    <path fill="#40396e"
        d="M86.915,81.033c-0.787,0-1.445-0.612-1.496-1.404c-0.069-0.98-2.148-23.857-41.302-24.427v13.256 c0,0.579-0.333,1.106-0.855,1.354c-0.521,0.249-1.14,0.176-1.591-0.19L12.138,45.627c-0.351-0.285-0.554-0.712-0.554-1.164 s0.203-0.879,0.554-1.164l29.533-23.996c0.45-0.366,1.068-0.439,1.591-0.19c0.522,0.249,0.855,0.776,0.855,1.354v13.284 c43.235,1.001,44.293,45.311,44.299,45.763c0.01,0.813-0.63,1.486-1.442,1.518C86.954,81.032,86.935,81.033,86.915,81.033z M42.617,52.191c24.021,0,35.472,8.21,40.913,15.617c-0.83-3.066-2.024-6.462-3.743-9.838 c-7.173-14.091-19.679-21.236-37.17-21.236c-0.828,0-1.5-0.671-1.5-1.5V23.619L15.463,44.463l25.654,20.844V53.691 C41.117,52.863,41.789,52.191,42.617,52.191z" />
</svg>