<svg xmlns="http://www.w3.org/2000/svg" viewBox="0 0 100 100">
    <path fill-opacity=".35"
        d="M52,98c-10.917,0-20.905-4.197-27.403-11.515c-6.003-6.762-8.685-15.73-7.551-25.254	c2.677-22.487,27.418-49.223,30.231-52.197c1.211-1.28,2.933-2.014,4.723-2.014c1.791,0,3.512,0.733,4.722,2.012	c2.814,2.978,27.558,29.726,30.232,52.199c1.134,9.524-1.548,18.493-7.552,25.254C72.904,93.803,62.917,98,52,98z" />
    <path fill="#f2f2f2"
        d="M50,96c-10.917,0-20.905-4.197-27.403-11.515c-6.003-6.762-8.685-15.73-7.551-25.254	c2.677-22.487,27.418-49.223,30.231-52.197c1.211-1.28,2.933-2.014,4.723-2.014c1.791,0,3.512,0.733,4.722,2.012	c2.814,2.978,27.558,29.726,30.232,52.199c1.134,9.524-1.548,18.493-7.552,25.254C70.904,91.803,60.917,96,50,96z" />
    <path fill="#70bfff"
        d="M78.5,60C76,39,50,11.5,50,11.5S24,39,21.5,60C19.443,77.275,32.603,89.5,50,89.5	S80.557,77.275,78.5,60z" />
    <path fill="#f2f2f2"
        d="M40.146,77.676c-0.156,0-0.315-0.024-0.471-0.076c-4.901-1.622-12.473-9.93-9.468-20.027	c0.236-0.794,1.073-1.248,1.865-1.01c0.794,0.236,1.246,1.071,1.01,1.865c-2.459,8.267,3.598,15.021,7.535,16.324	c0.787,0.26,1.213,1.108,0.953,1.896C41.361,77.277,40.775,77.676,40.146,77.676z" />
    <path fill="#40396e" d="M50,13c27,34,20,76-2,76c0,0,19,3,29-15S50,13,50,13z" opacity=".35" />
    <path fill="#40396e"
        d="M50,91c-9.489,0-18.114-3.585-23.665-9.835c-5.042-5.678-7.288-13.257-6.325-21.343	C22.54,38.574,47.834,11.607,48.91,10.469c0.566-0.599,1.613-0.599,2.18,0c1.075,1.138,26.37,28.105,28.899,49.353	c0.963,8.086-1.283,15.665-6.325,21.343C68.114,87.415,59.488,91,50,91z M50,13.722C45.079,19.19,25.113,42.34,22.989,60.178	c-0.872,7.327,1.061,13.896,5.589,18.995C33.56,84.782,41.368,88,50,88s16.439-3.218,21.421-8.827	c4.529-5.1,6.462-11.669,5.59-18.995C74.887,42.34,54.922,19.19,50,13.722z" />
</svg>