<svg xmlns="http://www.w3.org/2000/svg" viewBox="0 0 100 100">
    <path
        d="M27.295,92.062c-4.122,0-7.969-1.577-10.83-4.44c-5.973-5.971-5.902-15.851,0.135-22.084 c0.437-0.48,0.924-0.884,2.538-2.222c3.739-3.099,12.195-10.106,20.794-18.833c-0.052-0.249-0.101-0.479-0.138-0.655 c-1.02-4.8-3.14-14.775,5.063-22.978c5.575-5.576,13.896-8.904,22.26-8.904c2.363,0,4.669,0.271,6.853,0.807 c2.276,0.558,4.083,2.308,4.713,4.566c0.632,2.249-0.005,4.683-1.665,6.343L65.851,34.829c0.33,0.548,0.792,1.166,1.438,1.812 c0.654,0.654,1.278,1.118,1.832,1.448l11.174-11.045c1.222-1.209,2.845-1.877,4.568-1.877c0.596,0,1.189,0.082,1.764,0.244 c2.252,0.637,3.993,2.439,4.55,4.706c2.413,9.857-0.814,21.466-8.032,28.89l-0.081,0.081c-4.086,4.015-9.02,6.051-14.665,6.051 c-3.403,0-6.351-0.729-8.502-1.261c-0.098-0.024-0.213-0.052-0.339-0.083c-8.984,9.193-16.729,18.604-19.383,21.83 c-0.94,1.141-1.136,1.378-1.437,1.68c-2.962,2.961-6.879,4.648-11.032,4.753c-0.133,0.003-0.271,0.005-0.408,0.005H27.295z"
        opacity=".35" />
    <path fill="#f2f2f2"
        d="M25.295,90.062c-4.122,0-7.969-1.577-10.83-4.44C8.492,79.651,8.562,69.772,14.6,63.539 c0.437-0.48,0.924-0.884,2.538-2.222c3.739-3.099,12.195-10.106,20.794-18.833c-0.052-0.249-0.101-0.479-0.138-0.655 c-1.02-4.8-3.14-14.775,5.063-22.978c5.575-5.576,13.896-8.904,22.26-8.904c2.363,0,4.669,0.271,6.853,0.807 c2.276,0.558,4.083,2.308,4.713,4.566c0.632,2.249-0.005,4.683-1.665,6.343L63.851,32.829c0.33,0.548,0.792,1.166,1.438,1.812 c0.654,0.654,1.278,1.118,1.832,1.448l11.174-11.045c1.222-1.209,2.845-1.877,4.568-1.877c0.596,0,1.189,0.082,1.764,0.244 c2.252,0.637,3.993,2.439,4.55,4.706c2.413,9.857-0.814,21.466-8.032,28.89l-0.081,0.081c-4.086,4.015-9.02,6.051-14.665,6.051 c-3.403,0-6.351-0.729-8.502-1.261c-0.098-0.024-0.213-0.052-0.339-0.083c-8.984,9.193-16.729,18.604-19.383,21.83 c-0.94,1.141-1.136,1.378-1.437,1.68c-2.962,2.961-6.879,4.648-11.032,4.753c-0.133,0.003-0.271,0.005-0.408,0.005H25.295z" />
    <path fill="#9aa2e6"
        d="M82.863,29.667L68.986,43.384c0,0-4.147,0-8.294-4.147c-4.147-4.147-4.147-8.294-4.147-8.294 l13.877-13.877c-7.816-1.914-17.227,0.638-22.969,6.38c-8.613,8.613-0.957,19.619-3.19,21.852 C32.141,57.899,19.699,67.469,19.38,67.948c-3.669,3.669-3.828,9.57-0.319,13.079c3.509,3.509,9.411,3.35,13.079-0.319 c0.479-0.479,10.687-13.398,22.65-25.361c2.233-2.233,12.76,5.902,21.693-2.871C82.066,46.734,84.777,37.483,82.863,29.667z M26.558,76.894c-1.803,0-3.22-1.417-3.22-3.22c0-1.932,1.417-3.348,3.22-3.348s3.22,1.417,3.22,3.22 C29.778,75.349,28.361,76.894,26.558,76.894z" />
    <path fill="#40396e"
        d="M25.297,85.062c-2.79,0-5.372-1.05-7.296-2.975c-4.083-4.082-3.961-10.855,0.256-15.138 c0.2-0.231,0.605-0.569,2.071-1.784c4.043-3.35,13.511-11.195,22.854-20.908c0.157-0.391-0.222-2.174-0.498-3.476 c-0.963-4.531-2.574-12.114,3.709-18.397c6.03-6.03,16.062-8.818,24.386-6.777c0.526,0.129,0.942,0.531,1.088,1.053 c0.146,0.521-0.001,1.082-0.384,1.464L58.101,31.509c0.169,1.149,0.857,3.873,3.652,6.668s5.519,3.483,6.673,3.652L81.809,28.6 c0.385-0.381,0.942-0.523,1.463-0.376c0.52,0.147,0.92,0.562,1.049,1.086c2.019,8.245-0.698,17.974-6.762,24.211 c-6.561,6.446-14.012,4.604-18.465,3.502c-1.19-0.295-2.806-0.695-3.295-0.564c-9.896,9.903-18.617,20.501-21.486,23.988 c-0.832,1.01-0.99,1.2-1.111,1.321c-2.05,2.049-4.757,3.218-7.622,3.29C25.485,85.062,25.391,85.062,25.297,85.062z M20.515,68.929c-0.023,0.027-0.049,0.054-0.074,0.08c-3.108,3.11-3.252,8.025-0.318,10.958c1.401,1.402,3.326,2.139,5.381,2.093 c2.094-0.053,4.074-0.91,5.577-2.412c0.083-0.092,0.404-0.485,0.915-1.106c2.897-3.521,11.714-14.234,21.734-24.255 c1.346-1.348,3.439-0.829,6.085-0.175c4.335,1.073,10.274,2.542,15.618-2.706c4.608-4.741,7.073-12.082,6.435-18.646 L70.041,44.451c-0.281,0.277-0.66,0.433-1.055,0.433c-0.194,0-4.821-0.052-9.354-4.586c-4.535-4.535-4.587-9.16-4.587-9.355 c0-0.398,0.158-0.779,0.439-1.061l11.831-11.831c-6.726-0.688-14.124,1.779-18.802,6.456c-5.131,5.131-3.839,11.212-2.896,15.652 c0.578,2.721,1.034,4.871-0.295,6.2c-9.44,9.813-18.999,17.734-23.081,21.117C21.453,68.13,20.705,68.75,20.515,68.929z" />
</svg>